<mxfile host="app.diagrams.net" modified="2023-08-26T08:36:30.283Z" agent="Mozilla/5.0 (Windows NT 10.0; Win64; x64) AppleWebKit/537.36 (KHTML, like Gecko) Chrome/116.0.0.0 Safari/537.36 Edg/116.0.1938.54" etag="vW3ZyBEk2FUMNEBbgIf4" version="21.6.8" type="github">
  <diagram name="第 1 页" id="InVyh-9l9OcWP-TeC2Xe">
    <mxGraphModel dx="2206" dy="796" grid="1" gridSize="10" guides="1" tooltips="1" connect="1" arrows="1" fold="1" page="1" pageScale="1" pageWidth="827" pageHeight="1169" math="0" shadow="0">
      <root>
        <mxCell id="0" />
        <mxCell id="1" parent="0" />
        <mxCell id="vdifljgMGHBuSl6tnzv3-34" style="edgeStyle=orthogonalEdgeStyle;rounded=0;orthogonalLoop=1;jettySize=auto;html=1;" edge="1" parent="1" source="vdifljgMGHBuSl6tnzv3-1" target="vdifljgMGHBuSl6tnzv3-2">
          <mxGeometry relative="1" as="geometry" />
        </mxCell>
        <mxCell id="vdifljgMGHBuSl6tnzv3-35" style="edgeStyle=orthogonalEdgeStyle;rounded=0;orthogonalLoop=1;jettySize=auto;html=1;entryX=0.5;entryY=0;entryDx=0;entryDy=0;" edge="1" parent="1" source="vdifljgMGHBuSl6tnzv3-1" target="vdifljgMGHBuSl6tnzv3-6">
          <mxGeometry relative="1" as="geometry" />
        </mxCell>
        <mxCell id="vdifljgMGHBuSl6tnzv3-36" style="edgeStyle=orthogonalEdgeStyle;rounded=0;orthogonalLoop=1;jettySize=auto;html=1;" edge="1" parent="1" target="vdifljgMGHBuSl6tnzv3-7">
          <mxGeometry relative="1" as="geometry">
            <mxPoint x="300" y="210" as="sourcePoint" />
          </mxGeometry>
        </mxCell>
        <mxCell id="vdifljgMGHBuSl6tnzv3-1" value="«interface»&lt;br&gt;NormalConfigurationController" style="html=1;whiteSpace=wrap;" vertex="1" parent="1">
          <mxGeometry x="240" y="90" width="110" height="50" as="geometry" />
        </mxCell>
        <mxCell id="vdifljgMGHBuSl6tnzv3-41" style="edgeStyle=orthogonalEdgeStyle;rounded=0;orthogonalLoop=1;jettySize=auto;html=1;entryX=0.436;entryY=0.04;entryDx=0;entryDy=0;entryPerimeter=0;" edge="1" parent="1" source="vdifljgMGHBuSl6tnzv3-2" target="vdifljgMGHBuSl6tnzv3-9">
          <mxGeometry relative="1" as="geometry">
            <Array as="points">
              <mxPoint x="195" y="370" />
              <mxPoint x="28" y="370" />
            </Array>
          </mxGeometry>
        </mxCell>
        <mxCell id="vdifljgMGHBuSl6tnzv3-42" style="edgeStyle=orthogonalEdgeStyle;rounded=0;orthogonalLoop=1;jettySize=auto;html=1;entryX=0.5;entryY=0;entryDx=0;entryDy=0;" edge="1" parent="1" source="vdifljgMGHBuSl6tnzv3-2" target="vdifljgMGHBuSl6tnzv3-10">
          <mxGeometry relative="1" as="geometry" />
        </mxCell>
        <mxCell id="vdifljgMGHBuSl6tnzv3-43" style="edgeStyle=orthogonalEdgeStyle;rounded=0;orthogonalLoop=1;jettySize=auto;html=1;entryX=0.5;entryY=0;entryDx=0;entryDy=0;" edge="1" parent="1" source="vdifljgMGHBuSl6tnzv3-2" target="vdifljgMGHBuSl6tnzv3-11">
          <mxGeometry relative="1" as="geometry">
            <Array as="points">
              <mxPoint x="195" y="370" />
              <mxPoint x="347" y="370" />
            </Array>
          </mxGeometry>
        </mxCell>
        <mxCell id="vdifljgMGHBuSl6tnzv3-44" style="edgeStyle=orthogonalEdgeStyle;rounded=0;orthogonalLoop=1;jettySize=auto;html=1;entryX=0.5;entryY=0;entryDx=0;entryDy=0;" edge="1" parent="1" source="vdifljgMGHBuSl6tnzv3-2" target="vdifljgMGHBuSl6tnzv3-12">
          <mxGeometry relative="1" as="geometry">
            <Array as="points">
              <mxPoint x="195" y="370" />
              <mxPoint x="503" y="370" />
            </Array>
          </mxGeometry>
        </mxCell>
        <mxCell id="vdifljgMGHBuSl6tnzv3-45" style="edgeStyle=orthogonalEdgeStyle;rounded=0;orthogonalLoop=1;jettySize=auto;html=1;" edge="1" parent="1" source="vdifljgMGHBuSl6tnzv3-2" target="vdifljgMGHBuSl6tnzv3-13">
          <mxGeometry relative="1" as="geometry">
            <Array as="points">
              <mxPoint x="195" y="370" />
              <mxPoint x="659" y="370" />
            </Array>
          </mxGeometry>
        </mxCell>
        <mxCell id="vdifljgMGHBuSl6tnzv3-46" style="edgeStyle=orthogonalEdgeStyle;rounded=0;orthogonalLoop=1;jettySize=auto;html=1;entryX=0.5;entryY=0;entryDx=0;entryDy=0;" edge="1" parent="1" source="vdifljgMGHBuSl6tnzv3-2" target="vdifljgMGHBuSl6tnzv3-14">
          <mxGeometry relative="1" as="geometry">
            <Array as="points">
              <mxPoint x="195" y="370" />
              <mxPoint x="815" y="370" />
            </Array>
          </mxGeometry>
        </mxCell>
        <mxCell id="vdifljgMGHBuSl6tnzv3-2" value="«interface»&lt;br&gt;TimeTableService" style="html=1;whiteSpace=wrap;" vertex="1" parent="1">
          <mxGeometry x="140" y="280" width="110" height="50" as="geometry" />
        </mxCell>
        <mxCell id="vdifljgMGHBuSl6tnzv3-37" style="edgeStyle=orthogonalEdgeStyle;rounded=0;orthogonalLoop=1;jettySize=auto;html=1;entryX=0.5;entryY=0;entryDx=0;entryDy=0;" edge="1" parent="1" source="vdifljgMGHBuSl6tnzv3-5" target="vdifljgMGHBuSl6tnzv3-7">
          <mxGeometry relative="1" as="geometry">
            <Array as="points">
              <mxPoint x="505" y="210" />
              <mxPoint x="625" y="210" />
            </Array>
          </mxGeometry>
        </mxCell>
        <mxCell id="vdifljgMGHBuSl6tnzv3-38" style="edgeStyle=orthogonalEdgeStyle;rounded=0;orthogonalLoop=1;jettySize=auto;html=1;entryX=0.5;entryY=0;entryDx=0;entryDy=0;" edge="1" parent="1" source="vdifljgMGHBuSl6tnzv3-5" target="vdifljgMGHBuSl6tnzv3-6">
          <mxGeometry relative="1" as="geometry" />
        </mxCell>
        <mxCell id="vdifljgMGHBuSl6tnzv3-5" value="«interface»&lt;br&gt;SchedulePlanController" style="html=1;whiteSpace=wrap;" vertex="1" parent="1">
          <mxGeometry x="450" y="90" width="110" height="50" as="geometry" />
        </mxCell>
        <mxCell id="vdifljgMGHBuSl6tnzv3-47" style="edgeStyle=orthogonalEdgeStyle;rounded=0;orthogonalLoop=1;jettySize=auto;html=1;entryX=0.5;entryY=0;entryDx=0;entryDy=0;" edge="1" parent="1" source="vdifljgMGHBuSl6tnzv3-6" target="vdifljgMGHBuSl6tnzv3-11">
          <mxGeometry relative="1" as="geometry">
            <Array as="points">
              <mxPoint x="405" y="370" />
              <mxPoint x="347" y="370" />
            </Array>
          </mxGeometry>
        </mxCell>
        <mxCell id="vdifljgMGHBuSl6tnzv3-6" value="«interface»&lt;br&gt;TimeTableService" style="html=1;whiteSpace=wrap;" vertex="1" parent="1">
          <mxGeometry x="350" y="280" width="110" height="50" as="geometry" />
        </mxCell>
        <mxCell id="vdifljgMGHBuSl6tnzv3-48" style="edgeStyle=orthogonalEdgeStyle;rounded=0;orthogonalLoop=1;jettySize=auto;html=1;entryX=0.5;entryY=0;entryDx=0;entryDy=0;" edge="1" parent="1" source="vdifljgMGHBuSl6tnzv3-7" target="vdifljgMGHBuSl6tnzv3-13">
          <mxGeometry relative="1" as="geometry">
            <Array as="points">
              <mxPoint x="625" y="370" />
              <mxPoint x="659" y="370" />
            </Array>
          </mxGeometry>
        </mxCell>
        <mxCell id="vdifljgMGHBuSl6tnzv3-7" value="«interface»&lt;br&gt;WorkRestTimeService" style="html=1;whiteSpace=wrap;" vertex="1" parent="1">
          <mxGeometry x="570" y="280" width="110" height="50" as="geometry" />
        </mxCell>
        <mxCell id="vdifljgMGHBuSl6tnzv3-49" style="edgeStyle=orthogonalEdgeStyle;rounded=0;orthogonalLoop=1;jettySize=auto;html=1;entryX=0.5;entryY=0;entryDx=0;entryDy=0;" edge="1" parent="1" source="vdifljgMGHBuSl6tnzv3-9" target="vdifljgMGHBuSl6tnzv3-20">
          <mxGeometry relative="1" as="geometry" />
        </mxCell>
        <mxCell id="vdifljgMGHBuSl6tnzv3-9" value="«interface»&lt;br&gt;LineWorkTimeMapper" style="html=1;whiteSpace=wrap;" vertex="1" parent="1">
          <mxGeometry x="-20" y="520" width="110" height="50" as="geometry" />
        </mxCell>
        <mxCell id="vdifljgMGHBuSl6tnzv3-50" style="edgeStyle=orthogonalEdgeStyle;rounded=0;orthogonalLoop=1;jettySize=auto;html=1;" edge="1" parent="1" source="vdifljgMGHBuSl6tnzv3-10" target="vdifljgMGHBuSl6tnzv3-22">
          <mxGeometry relative="1" as="geometry" />
        </mxCell>
        <mxCell id="vdifljgMGHBuSl6tnzv3-10" value="«interface»&lt;br&gt;TimeTableMapper" style="html=1;whiteSpace=wrap;" vertex="1" parent="1">
          <mxGeometry x="136" y="520" width="110" height="50" as="geometry" />
        </mxCell>
        <mxCell id="vdifljgMGHBuSl6tnzv3-51" style="edgeStyle=orthogonalEdgeStyle;rounded=0;orthogonalLoop=1;jettySize=auto;html=1;entryX=0.5;entryY=0;entryDx=0;entryDy=0;" edge="1" parent="1" source="vdifljgMGHBuSl6tnzv3-11" target="vdifljgMGHBuSl6tnzv3-26">
          <mxGeometry relative="1" as="geometry" />
        </mxCell>
        <mxCell id="vdifljgMGHBuSl6tnzv3-11" value="«interface»&lt;br&gt;TrafficPlanConfigurationMapper" style="html=1;whiteSpace=wrap;" vertex="1" parent="1">
          <mxGeometry x="292" y="520" width="110" height="50" as="geometry" />
        </mxCell>
        <mxCell id="vdifljgMGHBuSl6tnzv3-52" style="edgeStyle=orthogonalEdgeStyle;rounded=0;orthogonalLoop=1;jettySize=auto;html=1;" edge="1" parent="1" source="vdifljgMGHBuSl6tnzv3-12" target="vdifljgMGHBuSl6tnzv3-28">
          <mxGeometry relative="1" as="geometry" />
        </mxCell>
        <mxCell id="vdifljgMGHBuSl6tnzv3-12" value="«interface»&lt;br&gt;WorkConfigMapper" style="html=1;whiteSpace=wrap;" vertex="1" parent="1">
          <mxGeometry x="448" y="520" width="110" height="50" as="geometry" />
        </mxCell>
        <mxCell id="vdifljgMGHBuSl6tnzv3-53" style="edgeStyle=orthogonalEdgeStyle;rounded=0;orthogonalLoop=1;jettySize=auto;html=1;" edge="1" parent="1" source="vdifljgMGHBuSl6tnzv3-13" target="vdifljgMGHBuSl6tnzv3-15">
          <mxGeometry relative="1" as="geometry" />
        </mxCell>
        <mxCell id="vdifljgMGHBuSl6tnzv3-13" value="«interface»&lt;br&gt;WorkRestTimeMapper" style="html=1;whiteSpace=wrap;" vertex="1" parent="1">
          <mxGeometry x="604" y="520" width="110" height="50" as="geometry" />
        </mxCell>
        <mxCell id="vdifljgMGHBuSl6tnzv3-54" style="edgeStyle=orthogonalEdgeStyle;rounded=0;orthogonalLoop=1;jettySize=auto;html=1;" edge="1" parent="1" source="vdifljgMGHBuSl6tnzv3-14" target="vdifljgMGHBuSl6tnzv3-30">
          <mxGeometry relative="1" as="geometry" />
        </mxCell>
        <mxCell id="vdifljgMGHBuSl6tnzv3-14" value="«interface»&lt;br&gt;WorkTimeMapper" style="html=1;whiteSpace=wrap;" vertex="1" parent="1">
          <mxGeometry x="760" y="520" width="110" height="50" as="geometry" />
        </mxCell>
        <mxCell id="vdifljgMGHBuSl6tnzv3-15" value="WorkRestTime" style="swimlane;fontStyle=0;childLayout=stackLayout;horizontal=1;startSize=26;fillColor=none;horizontalStack=0;resizeParent=1;resizeParentMax=0;resizeLast=0;collapsible=1;marginBottom=0;whiteSpace=wrap;html=1;" vertex="1" parent="1">
          <mxGeometry x="560" y="620" width="140" height="52" as="geometry" />
        </mxCell>
        <mxCell id="vdifljgMGHBuSl6tnzv3-16" value="&amp;nbsp;" style="text;strokeColor=none;fillColor=none;align=left;verticalAlign=top;spacingLeft=4;spacingRight=4;overflow=hidden;rotatable=0;points=[[0,0.5],[1,0.5]];portConstraint=eastwest;whiteSpace=wrap;html=1;" vertex="1" parent="vdifljgMGHBuSl6tnzv3-15">
          <mxGeometry y="26" width="140" height="26" as="geometry" />
        </mxCell>
        <mxCell id="vdifljgMGHBuSl6tnzv3-20" value="LineWorkTime" style="swimlane;fontStyle=0;childLayout=stackLayout;horizontal=1;startSize=26;fillColor=none;horizontalStack=0;resizeParent=1;resizeParentMax=0;resizeLast=0;collapsible=1;marginBottom=0;whiteSpace=wrap;html=1;" vertex="1" parent="1">
          <mxGeometry x="-18" y="620" width="140" height="52" as="geometry" />
        </mxCell>
        <mxCell id="vdifljgMGHBuSl6tnzv3-21" value="&amp;nbsp;" style="text;strokeColor=none;fillColor=none;align=left;verticalAlign=top;spacingLeft=4;spacingRight=4;overflow=hidden;rotatable=0;points=[[0,0.5],[1,0.5]];portConstraint=eastwest;whiteSpace=wrap;html=1;" vertex="1" parent="vdifljgMGHBuSl6tnzv3-20">
          <mxGeometry y="26" width="140" height="26" as="geometry" />
        </mxCell>
        <mxCell id="vdifljgMGHBuSl6tnzv3-22" value="TimeTable" style="swimlane;fontStyle=0;childLayout=stackLayout;horizontal=1;startSize=26;fillColor=none;horizontalStack=0;resizeParent=1;resizeParentMax=0;resizeLast=0;collapsible=1;marginBottom=0;whiteSpace=wrap;html=1;" vertex="1" parent="1">
          <mxGeometry x="127" y="620" width="140" height="52" as="geometry" />
        </mxCell>
        <mxCell id="vdifljgMGHBuSl6tnzv3-23" value="&amp;nbsp;" style="text;strokeColor=none;fillColor=none;align=left;verticalAlign=top;spacingLeft=4;spacingRight=4;overflow=hidden;rotatable=0;points=[[0,0.5],[1,0.5]];portConstraint=eastwest;whiteSpace=wrap;html=1;" vertex="1" parent="vdifljgMGHBuSl6tnzv3-22">
          <mxGeometry y="26" width="140" height="26" as="geometry" />
        </mxCell>
        <mxCell id="vdifljgMGHBuSl6tnzv3-26" value="TrafficPlanConfiguration" style="swimlane;fontStyle=0;childLayout=stackLayout;horizontal=1;startSize=26;fillColor=none;horizontalStack=0;resizeParent=1;resizeParentMax=0;resizeLast=0;collapsible=1;marginBottom=0;whiteSpace=wrap;html=1;" vertex="1" parent="1">
          <mxGeometry x="271" y="620" width="140" height="52" as="geometry" />
        </mxCell>
        <mxCell id="vdifljgMGHBuSl6tnzv3-27" value="&amp;nbsp;" style="text;strokeColor=none;fillColor=none;align=left;verticalAlign=top;spacingLeft=4;spacingRight=4;overflow=hidden;rotatable=0;points=[[0,0.5],[1,0.5]];portConstraint=eastwest;whiteSpace=wrap;html=1;" vertex="1" parent="vdifljgMGHBuSl6tnzv3-26">
          <mxGeometry y="26" width="140" height="26" as="geometry" />
        </mxCell>
        <mxCell id="vdifljgMGHBuSl6tnzv3-28" value="WorkConfig" style="swimlane;fontStyle=0;childLayout=stackLayout;horizontal=1;startSize=26;fillColor=none;horizontalStack=0;resizeParent=1;resizeParentMax=0;resizeLast=0;collapsible=1;marginBottom=0;whiteSpace=wrap;html=1;" vertex="1" parent="1">
          <mxGeometry x="416" y="620" width="140" height="52" as="geometry" />
        </mxCell>
        <mxCell id="vdifljgMGHBuSl6tnzv3-29" value="&amp;nbsp;" style="text;strokeColor=none;fillColor=none;align=left;verticalAlign=top;spacingLeft=4;spacingRight=4;overflow=hidden;rotatable=0;points=[[0,0.5],[1,0.5]];portConstraint=eastwest;whiteSpace=wrap;html=1;" vertex="1" parent="vdifljgMGHBuSl6tnzv3-28">
          <mxGeometry y="26" width="140" height="26" as="geometry" />
        </mxCell>
        <mxCell id="vdifljgMGHBuSl6tnzv3-30" value="WorkTime" style="swimlane;fontStyle=0;childLayout=stackLayout;horizontal=1;startSize=26;fillColor=none;horizontalStack=0;resizeParent=1;resizeParentMax=0;resizeLast=0;collapsible=1;marginBottom=0;whiteSpace=wrap;html=1;" vertex="1" parent="1">
          <mxGeometry x="705" y="620" width="140" height="52" as="geometry" />
        </mxCell>
        <mxCell id="vdifljgMGHBuSl6tnzv3-31" value="&amp;nbsp;" style="text;strokeColor=none;fillColor=none;align=left;verticalAlign=top;spacingLeft=4;spacingRight=4;overflow=hidden;rotatable=0;points=[[0,0.5],[1,0.5]];portConstraint=eastwest;whiteSpace=wrap;html=1;" vertex="1" parent="vdifljgMGHBuSl6tnzv3-30">
          <mxGeometry y="26" width="140" height="26" as="geometry" />
        </mxCell>
      </root>
    </mxGraphModel>
  </diagram>
</mxfile>
